# Blender v2.80 (sub 75) OBJ File: 'caminho.blend'
# www.blender.org
mtllib caminho.mtl
o Plane.001
v -18.506855 -0.002025 -0.014265
v -0.062395 -0.002026 17.980824
v -0.062395 -0.002024 -18.009354
v -0.062395 -0.002025 -0.014265
v -0.062395 -0.002025 -9.011809
v -0.062395 -0.002025 8.983279
v -9.284625 -0.002025 -0.014265
v -18.506855 -0.002025 4.484507
v -4.673510 -0.002026 17.980824
v 4.548720 -0.002024 -18.009354
v -0.062395 -0.002024 -13.510582
v -0.062395 -0.002025 4.484507
v -13.895741 -0.002025 -0.014265
v 4.548720 -0.002025 -0.014265
v -4.673510 -0.002024 -18.009354
v 4.548720 -0.002026 17.980824
v -18.506855 -0.002025 -4.513037
v -0.062395 -0.002025 -4.513037
v -0.062395 -0.002026 13.482052
v -4.673510 -0.002025 -0.014265
v 4.548720 -0.002025 8.983279
v -9.284625 -0.002025 4.484507
v -4.673510 -0.002025 8.983279
v -9.284625 -0.002025 -4.513037
v -4.673510 -0.002025 -9.011809
v 4.548720 -0.002025 -9.011809
v 4.548720 -0.002025 -4.513037
v 4.548720 -0.002024 -13.510582
v -4.673510 -0.002025 -4.513037
v -13.895741 -0.002025 -4.513037
v -4.673510 -0.002026 13.482052
v -13.895741 -0.002025 4.484507
v 4.548720 -0.002026 13.482052
v 4.548720 -0.002025 4.484507
v -4.673510 -0.002025 4.484507
v -4.673510 -0.002024 -13.510582
v -18.506855 -0.002025 2.235121
v -2.367953 -0.002026 17.980824
v 2.243162 -0.002024 -18.009354
v -0.062395 -0.002024 -15.759968
v -0.062395 -0.002025 2.235121
v -16.201298 -0.002025 -0.014265
v 2.243162 -0.002025 -0.014265
v -0.062395 -0.002025 -6.762424
v -0.062395 -0.002025 11.232666
v -6.979068 -0.002025 -0.014265
v 2.243162 -0.002025 8.983279
v -9.284625 -0.002025 2.235121
v 2.243162 -0.002025 -9.011809
v -0.062395 -0.002025 -11.261196
v -0.062395 -0.002025 6.733893
v -11.590183 -0.002025 -0.014265
v -2.367953 -0.002024 -18.009354
v 2.243162 -0.002026 17.980824
v -18.506855 -0.002025 -2.263651
v -0.062395 -0.002025 -2.263651
v -0.062395 -0.002026 15.731438
v -2.367953 -0.002025 -0.014265
v -2.367953 -0.002025 8.983279
v -9.284625 -0.002025 -2.263651
v -2.367953 -0.002025 -9.011809
v 4.548720 -0.002025 -6.762424
v 4.548720 -0.002025 -2.263651
v 2.243162 -0.002025 -4.513037
v 4.548720 -0.002024 -15.759968
v 4.548720 -0.002025 -11.261196
v 2.243162 -0.002024 -13.510582
v -4.673510 -0.002025 -6.762424
v -4.673510 -0.002025 -2.263651
v -6.979068 -0.002025 -4.513037
v -2.367953 -0.002025 -4.513037
v -13.895741 -0.002025 -2.263651
v -16.201298 -0.002025 -4.513037
v -11.590183 -0.002025 -4.513037
v -4.673510 -0.002025 11.232666
v -4.673510 -0.002026 15.731438
v -2.367953 -0.002026 13.482052
v -13.895741 -0.002025 2.235121
v -16.201298 -0.002025 4.484507
v -11.590183 -0.002025 4.484507
v 4.548720 -0.002025 11.232666
v 4.548720 -0.002026 15.731438
v 2.243162 -0.002026 13.482052
v 4.548720 -0.002025 2.235121
v 4.548720 -0.002025 6.733893
v 2.243162 -0.002025 4.484507
v -4.673510 -0.002025 2.235121
v -4.673510 -0.002025 6.733893
v -6.979068 -0.002025 4.484507
v -2.367953 -0.002025 4.484507
v -4.673510 -0.002024 -15.759968
v -4.673510 -0.002025 -11.261196
v -2.367953 -0.002024 -13.510582
v -2.367953 -0.002025 -11.261196
v -2.367953 -0.002025 6.733893
v -6.979068 -0.002025 2.235121
v 2.243162 -0.002025 6.733893
v 2.243162 -0.002025 2.235121
v 2.243162 -0.002026 15.731438
v 2.243162 -0.002025 11.232666
v -16.201298 -0.002025 2.235121
v -2.367953 -0.002026 15.731438
v -11.590183 -0.002025 -2.263651
v -16.201298 -0.002025 -2.263651
v -2.367953 -0.002025 -2.263651
v -6.979068 -0.002025 -2.263651
v 2.243162 -0.002025 -11.261196
v 2.243162 -0.002024 -15.759968
v 2.243162 -0.002025 -2.263651
v 2.243162 -0.002025 -6.762424
v -2.367953 -0.002025 -6.762424
v -2.367953 -0.002025 11.232666
v -11.590183 -0.002025 2.235121
v -2.367953 -0.002025 2.235121
v -2.367953 -0.002024 -15.759968
vt 0.437500 0.937500
vt 0.500000 0.937500
vt 0.500000 1.000000
vt 0.437500 1.000000
vt 0.437500 0.437500
vt 0.500000 0.437500
vt 0.500000 0.500000
vt 0.437500 0.500000
vt 0.187500 0.437500
vt 0.250000 0.437500
vt 0.250000 0.500000
vt 0.187500 0.500000
vt 0.437500 0.187500
vt 0.500000 0.187500
vt 0.500000 0.250000
vt 0.437500 0.250000
vt 0.437500 0.687500
vt 0.500000 0.687500
vt 0.500000 0.750000
vt 0.437500 0.750000
vt 0.562500 0.687500
vt 0.625000 0.687500
vt 0.625000 0.750000
vt 0.562500 0.750000
vt 0.562500 0.562500
vt 0.625000 0.562500
vt 0.625000 0.625000
vt 0.562500 0.625000
vt 0.562500 0.937500
vt 0.625000 0.937500
vt 0.625000 1.000000
vt 0.562500 1.000000
vt 0.562500 0.812500
vt 0.625000 0.812500
vt 0.625000 0.875000
vt 0.562500 0.875000
vt 0.312500 0.562500
vt 0.375000 0.562500
vt 0.375000 0.625000
vt 0.312500 0.625000
vt 0.437500 0.562500
vt 0.500000 0.562500
vt 0.500000 0.625000
vt 0.437500 0.625000
vt 0.062500 0.562500
vt 0.125000 0.562500
vt 0.125000 0.625000
vt 0.062500 0.625000
vt 0.187500 0.562500
vt 0.250000 0.562500
vt 0.250000 0.625000
vt 0.187500 0.625000
vt 0.437500 0.062500
vt 0.500000 0.062500
vt 0.500000 0.125000
vt 0.437500 0.125000
vt 0.062500 0.437500
vt 0.125000 0.437500
vt 0.125000 0.500000
vt 0.062500 0.500000
vt 0.562500 0.187500
vt 0.625000 0.187500
vt 0.625000 0.250000
vt 0.562500 0.250000
vt 0.562500 0.062500
vt 0.625000 0.062500
vt 0.625000 0.125000
vt 0.562500 0.125000
vt 0.562500 0.437500
vt 0.625000 0.437500
vt 0.625000 0.500000
vt 0.562500 0.500000
vt 0.562500 0.312500
vt 0.625000 0.312500
vt 0.625000 0.375000
vt 0.562500 0.375000
vt 0.312500 0.437500
vt 0.375000 0.437500
vt 0.375000 0.500000
vt 0.312500 0.500000
vt 0.437500 0.312500
vt 0.500000 0.312500
vt 0.500000 0.375000
vt 0.437500 0.375000
vt 0.437500 0.812500
vt 0.500000 0.812500
vt 0.500000 0.875000
vt 0.437500 0.875000
vt 0.375000 0.812500
vt 0.375000 0.875000
vt 0.375000 0.750000
vt 0.375000 0.312500
vt 0.375000 0.375000
vt 0.375000 0.250000
vt 0.250000 0.375000
vt 0.312500 0.375000
vt 0.500000 0.000000
vt 0.562500 0.000000
vt 0.625000 0.000000
vt 0.000000 0.437500
vt 0.000000 0.500000
vt 0.000000 0.375000
vt 0.062500 0.375000
vt 0.125000 0.375000
vt 0.375000 0.062500
vt 0.375000 0.125000
vt 0.375000 0.000000
vt 0.437500 0.000000
vt 0.000000 0.562500
vt 0.000000 0.625000
vt 0.375000 0.687500
vt 0.375000 0.187500
vt 0.187500 0.375000
vt 0.375000 0.937500
vt 0.375000 1.000000
vn 0.0000 1.0000 0.0000
usemtl Material.003
s 1
f 115/1/1 40/2/1 3/3/1 53/4/1
f 114/5/1 41/6/1 4/7/1 58/8/1
f 113/9/1 48/10/1 7/11/1 52/12/1
f 112/13/1 45/14/1 6/15/1 59/16/1
f 111/17/1 44/18/1 5/19/1 61/20/1
f 110/21/1 62/22/1 26/23/1 49/24/1
f 109/25/1 63/26/1 27/27/1 64/28/1
f 108/29/1 65/30/1 10/31/1 39/32/1
f 107/33/1 66/34/1 28/35/1 67/36/1
f 106/37/1 69/38/1 29/39/1 70/40/1
f 105/41/1 56/42/1 18/43/1 71/44/1
f 104/45/1 72/46/1 30/47/1 73/48/1
f 103/49/1 60/50/1 24/51/1 74/52/1
f 102/53/1 57/54/1 19/55/1 77/56/1
f 101/57/1 78/58/1 13/59/1 42/60/1
f 100/61/1 81/62/1 21/63/1 47/64/1
f 99/65/1 82/66/1 33/67/1 83/68/1
f 98/69/1 84/70/1 14/71/1 43/72/1
f 97/73/1 85/74/1 34/75/1 86/76/1
f 96/77/1 87/78/1 20/79/1 46/80/1
f 95/81/1 51/82/1 12/83/1 90/84/1
f 94/85/1 50/86/1 11/87/1 93/88/1
f 92/89/1 94/85/1 93/88/1 36/90/1
f 25/91/1 61/20/1 94/85/1 92/89/1
f 61/20/1 5/19/1 50/86/1 94/85/1
f 88/92/1 95/81/1 90/84/1 35/93/1
f 23/94/1 59/16/1 95/81/1 88/92/1
f 59/16/1 6/15/1 51/82/1 95/81/1
f 48/10/1 96/77/1 46/80/1 7/11/1
f 22/95/1 89/96/1 96/77/1 48/10/1
f 89/96/1 35/93/1 87/78/1 96/77/1
f 51/82/1 97/73/1 86/76/1 12/83/1
f 6/15/1 47/64/1 97/73/1 51/82/1
f 47/64/1 21/63/1 85/74/1 97/73/1
f 41/6/1 98/69/1 43/72/1 4/7/1
f 12/83/1 86/76/1 98/69/1 41/6/1
f 86/76/1 34/75/1 84/70/1 98/69/1
f 57/54/1 99/65/1 83/68/1 19/55/1
f 2/97/1 54/98/1 99/65/1 57/54/1
f 54/98/1 16/99/1 82/66/1 99/65/1
f 45/14/1 100/61/1 47/64/1 6/15/1
f 19/55/1 83/68/1 100/61/1 45/14/1
f 83/68/1 33/67/1 81/62/1 100/61/1
f 37/100/1 101/57/1 42/60/1 1/101/1
f 8/102/1 79/103/1 101/57/1 37/100/1
f 79/103/1 32/104/1 78/58/1 101/57/1
f 76/105/1 102/53/1 77/56/1 31/106/1
f 9/107/1 38/108/1 102/53/1 76/105/1
f 38/108/1 2/97/1 57/54/1 102/53/1
f 72/46/1 103/49/1 74/52/1 30/47/1
f 13/59/1 52/12/1 103/49/1 72/46/1
f 52/12/1 7/11/1 60/50/1 103/49/1
f 55/109/1 104/45/1 73/48/1 17/110/1
f 1/101/1 42/60/1 104/45/1 55/109/1
f 42/60/1 13/59/1 72/46/1 104/45/1
f 69/38/1 105/41/1 71/44/1 29/39/1
f 20/79/1 58/8/1 105/41/1 69/38/1
f 58/8/1 4/7/1 56/42/1 105/41/1
f 60/50/1 106/37/1 70/40/1 24/51/1
f 7/11/1 46/80/1 106/37/1 60/50/1
f 46/80/1 20/79/1 69/38/1 106/37/1
f 50/86/1 107/33/1 67/36/1 11/87/1
f 5/19/1 49/24/1 107/33/1 50/86/1
f 49/24/1 26/23/1 66/34/1 107/33/1
f 40/2/1 108/29/1 39/32/1 3/3/1
f 11/87/1 67/36/1 108/29/1 40/2/1
f 67/36/1 28/35/1 65/30/1 108/29/1
f 56/42/1 109/25/1 64/28/1 18/43/1
f 4/7/1 43/72/1 109/25/1 56/42/1
f 43/72/1 14/71/1 63/26/1 109/25/1
f 44/18/1 110/21/1 49/24/1 5/19/1
f 18/43/1 64/28/1 110/21/1 44/18/1
f 64/28/1 27/27/1 62/22/1 110/21/1
f 68/111/1 111/17/1 61/20/1 25/91/1
f 29/39/1 71/44/1 111/17/1 68/111/1
f 71/44/1 18/43/1 44/18/1 111/17/1
f 75/112/1 112/13/1 59/16/1 23/94/1
f 31/106/1 77/56/1 112/13/1 75/112/1
f 77/56/1 19/55/1 45/14/1 112/13/1
f 78/58/1 113/9/1 52/12/1 13/59/1
f 32/104/1 80/113/1 113/9/1 78/58/1
f 80/113/1 22/95/1 48/10/1 113/9/1
f 87/78/1 114/5/1 58/8/1 20/79/1
f 35/93/1 90/84/1 114/5/1 87/78/1
f 90/84/1 12/83/1 41/6/1 114/5/1
f 91/114/1 115/1/1 53/4/1 15/115/1
f 36/90/1 93/88/1 115/1/1 91/114/1
f 93/88/1 11/87/1 40/2/1 115/1/1
